<?xml version="1.0" encoding="UTF-8"?>
<svg version="1.1" viewBox="0 0 752 752" xmlns="http://www.w3.org/2000/svg" width="105px" height="105px">
 <g fill="#00f63c">
  <path d="m197.13 329.73c-3.4102 0-6.2031 2.793-6.2031 6.2031v80.227c0 3.4102 2.793 6.1094 6.2031 6.1094 3.3633 0 6.1562-2.6992 6.1562-6.1094v-80.227c0-3.4102-2.793-6.2031-6.1562-6.2031z"/>
  <path d="m246.48 283.46c-3.4102 0-6.1562 2.7461-6.1562 6.1562v172.76c0 3.4102 2.7461 6.1562 6.1562 6.1562 3.4102 0 6.1562-2.7461 6.1562-6.1562v-172.76c0-3.4102-2.7461-6.1562-6.1562-6.1562z"/>
  <path d="m295.82 332.81c-3.4102 0-6.1562 2.793-6.1562 6.1562v74.02c0 3.4102 2.7461 6.2031 6.1562 6.2031 3.4102 0 6.2031-2.793 6.2031-6.2031v-74.02c0-3.3633-2.793-6.1562-6.2031-6.1562z"/>
  <path d="m351.33 329.73c-3.4102 0-6.1562 2.793-6.1562 6.2031v80.227c0 3.4102 2.7461 6.1094 6.1562 6.1094s6.1562-2.6992 6.1562-6.1094v-80.227c0-3.4102-2.6992-6.2031-6.1562-6.2031z"/>
  <path d="m406.88 283.46c-3.4102 0-6.2031 2.7461-6.2031 6.1562v172.76c0 3.4102 2.793 6.1562 6.2031 6.1562 3.3633 0 6.1562-2.7461 6.1562-6.1562v-172.76c0-3.4102-2.7461-6.1562-6.1562-6.1562z"/>
  <path d="m456.23 221.76c-3.4102 0-6.1562 2.793-6.1562 6.2031v296.18c0 3.3164 2.7461 6.1094 6.1562 6.1094 3.4102 0 6.1562-2.793 6.1562-6.1094v-296.18c0-3.457-2.6992-6.2031-6.1562-6.2031z"/>
  <path d="m505.57 283.46c-3.4102 0-6.1562 2.7461-6.1562 6.1562v172.76c0 3.4102 2.7461 6.1562 6.1562 6.1562 3.4102 0 6.2031-2.7461 6.2031-6.1562v-172.76c0-3.4102-2.7461-6.1562-6.2031-6.1562z"/>
  <path d="m554.97 332.81c-3.4102 0-6.2031 2.793-6.2031 6.1562v74.02c0 3.4102 2.793 6.2031 6.2031 6.2031 3.3633 0 6.1562-2.793 6.1562-6.2031v-74.02c0-3.3633-2.7461-6.1562-6.1562-6.1562z"/>
 </g>
</svg>
